<?xml version="1.0" encoding="UTF-8"?>
<svg width="81.159" height="42.117" version="1.1" viewBox="0 0 81.159 42.117" xmlns="http://www.w3.org/2000/svg" xmlns:cc="http://creativecommons.org/ns#" xmlns:dc="http://purl.org/dc/elements/1.1/" xmlns:ns0="http://www.iki.fi/pav/software/textext/" xmlns:rdf="http://www.w3.org/1999/02/22-rdf-syntax-ns#">
 <defs stroke-linejoin="round">
  <marker id="marker5991" overflow="visible" stroke-linejoin="round" orient="auto">
   <path transform="matrix(-.2 0 0 -.2 -1.2 0)" d="m0 0 5-5-17.5 5 17.5 5z" fill-rule="evenodd" stroke="#000" stroke-linejoin="round" stroke-width="1pt"/>
  </marker>
  <marker id="Arrow1Sstart" overflow="visible" stroke-linejoin="round" orient="auto">
   <path transform="matrix(.2 0 0 .2 1.2 0)" d="m0 0 5-5-17.5 5 17.5 5z" fill-rule="evenodd" stroke="#000" stroke-linejoin="round" stroke-width="1pt"/>
  </marker>
  <marker id="Arrow1Send" overflow="visible" stroke-linejoin="round" orient="auto">
   <path transform="matrix(-.2 0 0 -.2 -1.2 0)" d="m0 0 5-5-17.5 5 17.5 5z" fill-rule="evenodd" stroke="#000" stroke-linejoin="round" stroke-width="1pt"/>
  </marker>
  <style type="text/css">*{stroke-linecap:butt;stroke-linejoin:round;}</style>
  <style type="text/css">*{stroke-linecap:butt;stroke-linejoin:round;}</style>
  <linearGradient id="linearGradient7397-3" x1="43.536" x2="43.536" y1="112.76" y2="76.388" gradientTransform="matrix(.8 0 0 .8 -38.531 -61.927)" gradientUnits="userSpaceOnUse">
   <stop stop-color="#89A4B6" offset=".0056"/>
   <stop stop-color="#fff" offset=".5"/>
   <stop stop-color="#89A4B6" offset="1"/>
  </linearGradient>
 </defs>
 <metadata>
  <rdf:RDF>
   <cc:Work rdf:about="">
    <dc:format>image/svg+xml</dc:format>
    <dc:type rdf:resource="http://purl.org/dc/dcmitype/StillImage"/>
    <dc:title/>
   </cc:Work>
  </rdf:RDF>
 </metadata>
 <g stroke-linejoin="round">
  <text x="-262.57037" y="59.95652" fill="#000000" font-family="sans-serif" font-size="16px" letter-spacing="0px" word-spacing="0px" style="line-height:1.25" xml:space="preserve"/>
  <path d="m1.014 20.98h79.13" enable-background="new" fill="none" stroke="#f00" stroke-width="2"/>
  <flowRoot transform="matrix(3.7795 0 0 3.7795 -557.12 -284.28)" fill="#000000" font-family="'Latin Modern Roman'" font-size="16px" letter-spacing="0px" word-spacing="0px" style="line-height:1.25" xml:space="preserve"><flowRegion><rect x="337.87" y="-1.5662e-5" width="32" height="264" stroke-linejoin="round"/></flowRegion><flowPara/></flowRoot>
  <g transform="matrix(1.3333,0,0,1.3333,-187.89,-170.61)" inkscapeversion="0.92.4" ns0:alignment="middle center" ns0:jacobian_sqrt="1.333333" ns0:pdfconverter="pdf2svg" ns0:preamble="/home/phil/.config/inkscape/extensions/textext/preamble.tex" ns0:scale="1.0" ns0:texconverter="pdflatex" ns0:text="$E_\\mathrm{in}$" ns0:version="0.11.0">
   <g stroke-linejoin="round">
    <path transform="translate(148.71,134.76)" d="m7.0625-2.3281c0.015625-0.046875 0.046875-0.10938 0.046875-0.14062 0 0 0-0.10938-0.125-0.10938-0.09375 0-0.10938 0.0625-0.125 0.125-0.65625 1.4688-1.0156 2.1406-2.7188 2.1406h-1.6718c-0.10938-0.015625-0.14062-0.03125-0.14062-0.10938 0-0.03125 0-0.046875 0.046875-0.21875l0.6875-2.7344h0.98438c0.84375 0 0.84375 0.21875 0.84375 0.46875 0 0.0625 0 0.1875-0.0625 0.48438-0.015625 0.046875-0.03125 0.078125-0.03125 0.10938 0 0.046875 0.03125 0.10938 0.125 0.10938 0.078125 0 0.10938-0.046875 0.15625-0.20312l0.5625-2.3281c0-0.0625-0.046875-0.10938-0.125-0.10938s-0.10938 0.0625-0.125 0.17188c-0.21875 0.76562-0.39062 1-1.3125 1h-0.9375l0.59375-2.4062c0.09375-0.35938 0.10938-0.39062 0.54688-0.39062h1.4062c1.2031 0 1.5156 0.28125 1.5156 1.1094 0 0.23438 0 0.25-0.046875 0.53125 0 0.046875-0.015625 0.125-0.015625 0.17188s0.03125 0.125 0.125 0.125c0.10938 0 0.125-0.0625 0.14062-0.25l0.20312-1.7344c0.03125-0.26562-0.015625-0.26562-0.26562-0.26562h-5.0469c-0.1875 0-0.29688 0-0.29688 0.20312 0 0.10938 0.09375 0.10938 0.28125 0.10938 0.375 0 0.65625 0 0.65625 0.17188 0 0.046875 0 0.0625-0.0625 0.25l-1.3125 5.2656c-0.09375 0.39062-0.10938 0.46875-0.90625 0.46875-0.17188 0-0.28125 0-0.28125 0.1875 0 0.125 0.09375 0.125 0.28125 0.125h5.1719c0.23438 0 0.25-0.015625 0.3125-0.17188z"/>
    <path transform="translate(156.07,136.26)" d="m1.4688-4.2969c0-0.20312-0.17188-0.40625-0.40625-0.40625-0.20312 0-0.39062 0.17188-0.39062 0.40625 0 0.25 0.20312 0.40625 0.39062 0.40625 0.23438 0 0.40625-0.17188 0.40625-0.40625zm-1.0625 1.2969v0.25c0.4375 0 0.5 0.046875 0.5 0.39062v1.8125c0 0.29688-0.0625 0.29688-0.51562 0.29688v0.25c0.015625 0 0.5-0.03125 0.78125-0.03125 0.25 0 0.5 0.015625 0.73438 0.03125v-0.25c-0.40625 0-0.46875 0-0.46875-0.29688v-2.5312z"/>
    <path transform="translate(158.32,136.26)" d="m3.5938-2.1094c0-0.60938-0.29688-0.96875-1.0469-0.96875-0.57812 0-0.9375 0.3125-1.1406 0.6875v-0.6875l-1.0312 0.078125v0.25c0.46875 0 0.53125 0.046875 0.53125 0.39062v1.8125c0 0.29688-0.078125 0.29688-0.53125 0.29688v0.25c0.015625 0 0.5-0.03125 0.79688-0.03125 0.25 0 0.73438 0.03125 0.79688 0.03125v-0.25c-0.45312 0-0.51562 0-0.51562-0.29688v-1.2656c0-0.71875 0.57812-1.0625 1.0312-1.0625 0.48438 0 0.54688 0.375 0.54688 0.73438v1.5938c0 0.29688-0.0625 0.29688-0.51562 0.29688v0.25c0.015625 0 0.5-0.03125 0.79688-0.03125 0.25 0 0.73438 0.03125 0.79688 0.03125v-0.25c-0.45312 0-0.51562 0-0.51562-0.29688z"/>
   </g>
  </g>
  <g transform="translate(81.54,-352.29)" fill="none" stroke="#000" stroke-width="1px">
   <path d="m-72.466 367.27h20" marker-end="url(#Arrow1Send)"/>
   <path d="m-72.466 379.27h20" marker-start="url(#Arrow1Sstart)"/>
   <path d="m-30.466 367.27h20" marker-end="url(#marker5991)"/>
  </g>
  <g transform="matrix(1.3333,0,0,1.3333,-143.41,-170.65)" inkscapeversion="0.92.4" ns0:alignment="middle center" ns0:jacobian_sqrt="1.333333" ns0:pdfconverter="pdf2svg" ns0:preamble="/home/phil/.config/inkscape/extensions/textext/preamble.tex" ns0:scale="1.0" ns0:texconverter="pdflatex" ns0:text="$E_t$" ns0:version="0.11.0">
   <g stroke-linejoin="round">
    <path transform="translate(148.71,134.76)" d="m7.0625-2.3281c0.015625-0.046875 0.046875-0.10938 0.046875-0.14062 0 0 0-0.10938-0.125-0.10938-0.09375 0-0.10938 0.0625-0.125 0.125-0.65625 1.4688-1.0156 2.1406-2.7188 2.1406h-1.6718c-0.10938-0.015625-0.14062-0.03125-0.14062-0.10938 0-0.03125 0-0.046875 0.046875-0.21875l0.6875-2.7344h0.98438c0.84375 0 0.84375 0.21875 0.84375 0.46875 0 0.0625 0 0.1875-0.0625 0.48438-0.015625 0.046875-0.03125 0.078125-0.03125 0.10938 0 0.046875 0.03125 0.10938 0.125 0.10938 0.078125 0 0.10938-0.046875 0.15625-0.20312l0.5625-2.3281c0-0.0625-0.046875-0.10938-0.125-0.10938s-0.10938 0.0625-0.125 0.17188c-0.21875 0.76562-0.39062 1-1.3125 1h-0.9375l0.59375-2.4062c0.09375-0.35938 0.10938-0.39062 0.54688-0.39062h1.4062c1.2031 0 1.5156 0.28125 1.5156 1.1094 0 0.23438 0 0.25-0.046875 0.53125 0 0.046875-0.015625 0.125-0.015625 0.17188s0.03125 0.125 0.125 0.125c0.10938 0 0.125-0.0625 0.14062-0.25l0.20312-1.7344c0.03125-0.26562-0.015625-0.26562-0.26562-0.26562h-5.0469c-0.1875 0-0.29688 0-0.29688 0.20312 0 0.10938 0.09375 0.10938 0.28125 0.10938 0.375 0 0.65625 0 0.65625 0.17188 0 0.046875 0 0.0625-0.0625 0.25l-1.3125 5.2656c-0.09375 0.39062-0.10938 0.46875-0.90625 0.46875-0.17188 0-0.28125 0-0.28125 0.1875 0 0.125 0.09375 0.125 0.28125 0.125h5.1719c0.23438 0 0.25-0.015625 0.3125-0.17188z"/>
    <path transform="translate(156.07,136.26)" d="m1.7188-2.75h0.70312c0.14062 0 0.21875 0 0.21875-0.15625 0-0.09375-0.078125-0.09375-0.20312-0.09375h-0.65625l0.25-1.0312c0.015625-0.03125 0.03125-0.078125 0.03125-0.09375 0-0.14062-0.10938-0.23438-0.25-0.23438-0.17188 0-0.26562 0.125-0.32812 0.29688-0.046875 0.1875 0.046875-0.15625-0.26562 1.0625h-0.70312c-0.125 0-0.21875 0-0.21875 0.15625 0 0.09375 0.078125 0.09375 0.20312 0.09375h0.65625l-0.40625 1.6406c-0.046875 0.17188-0.10938 0.42188-0.10938 0.51562 0 0.40625 0.35938 0.65625 0.75 0.65625 0.78125 0 1.2188-0.96875 1.2188-1.0625s-0.09375-0.09375-0.10938-0.09375c-0.09375 0-0.09375 0.015625-0.15625 0.14062-0.1875 0.4375-0.54688 0.82812-0.92188 0.82812-0.15625 0-0.25-0.09375-0.25-0.34375 0-0.0625 0.03125-0.21875 0.046875-0.28125z"/>
   </g>
  </g>
  <g transform="matrix(1.3333,0,0,1.3333,-187.45,-139.65)" inkscapeversion="0.92.4" ns0:alignment="middle center" ns0:jacobian_sqrt="1.333333" ns0:pdfconverter="pdf2svg" ns0:preamble="/home/phil/.config/inkscape/extensions/textext/preamble.tex" ns0:scale="1.0" ns0:texconverter="pdflatex" ns0:text="$E_r$" ns0:version="0.11.0">
   <g stroke-linejoin="round">
    <path transform="translate(148.71,134.76)" d="m7.0625-2.3281c0.015625-0.046875 0.046875-0.10938 0.046875-0.14062 0 0 0-0.10938-0.125-0.10938-0.09375 0-0.10938 0.0625-0.125 0.125-0.65625 1.4688-1.0156 2.1406-2.7188 2.1406h-1.6718c-0.10938-0.015625-0.14062-0.03125-0.14062-0.10938 0-0.03125 0-0.046875 0.046875-0.21875l0.6875-2.7344h0.98438c0.84375 0 0.84375 0.21875 0.84375 0.46875 0 0.0625 0 0.1875-0.0625 0.48438-0.015625 0.046875-0.03125 0.078125-0.03125 0.10938 0 0.046875 0.03125 0.10938 0.125 0.10938 0.078125 0 0.10938-0.046875 0.15625-0.20312l0.5625-2.3281c0-0.0625-0.046875-0.10938-0.125-0.10938s-0.10938 0.0625-0.125 0.17188c-0.21875 0.76562-0.39062 1-1.3125 1h-0.9375l0.59375-2.4062c0.09375-0.35938 0.10938-0.39062 0.54688-0.39062h1.4062c1.2031 0 1.5156 0.28125 1.5156 1.1094 0 0.23438 0 0.25-0.046875 0.53125 0 0.046875-0.015625 0.125-0.015625 0.17188s0.03125 0.125 0.125 0.125c0.10938 0 0.125-0.0625 0.14062-0.25l0.20312-1.7344c0.03125-0.26562-0.015625-0.26562-0.26562-0.26562h-5.0469c-0.1875 0-0.29688 0-0.29688 0.20312 0 0.10938 0.09375 0.10938 0.28125 0.10938 0.375 0 0.65625 0 0.65625 0.17188 0 0.046875 0 0.0625-0.0625 0.25l-1.3125 5.2656c-0.09375 0.39062-0.10938 0.46875-0.90625 0.46875-0.17188 0-0.28125 0-0.28125 0.1875 0 0.125 0.09375 0.125 0.28125 0.125h5.1719c0.23438 0 0.25-0.015625 0.3125-0.17188z"/>
    <path transform="translate(156.07,136.26)" d="m1.6406-1.4062c0-0.046875 0.17188-0.67188 0.17188-0.70312 0.015625-0.0625 0.21875-0.40625 0.45312-0.57812 0.0625-0.046875 0.25-0.1875 0.5625-0.1875 0.0625 0 0.23438 0 0.375 0.09375-0.21875 0.0625-0.29688 0.26562-0.29688 0.39062 0 0.14062 0.10938 0.25 0.26562 0.25 0.17188 0 0.39062-0.125 0.39062-0.42188 0-0.35938-0.375-0.51562-0.73438-0.51562s-0.67188 0.15625-0.98438 0.5c-0.125-0.42188-0.54688-0.5-0.71875-0.5-0.25 0-0.42188 0.17188-0.54688 0.35938-0.15625 0.26562-0.25 0.67188-0.25 0.71875 0 0.078125 0.09375 0.078125 0.125 0.078125 0.09375 0 0.09375-0.015625 0.14062-0.20312 0.10938-0.42188 0.25-0.75 0.51562-0.75 0.1875 0 0.23438 0.15625 0.23438 0.34375 0 0.125-0.0625 0.39062-0.125 0.57812-0.046875 0.1875-0.10938 0.46875-0.14062 0.625l-0.23438 0.89062c-0.015625 0.09375-0.0625 0.26562-0.0625 0.28125 0 0.15625 0.125 0.21875 0.23438 0.21875s0.25-0.0625 0.29688-0.1875c0.015625-0.046875 0.09375-0.35938 0.14062-0.53125z"/>
   </g>
  </g>
  <g transform="matrix(2.6725 -2.6725 2.6725 2.6725 -514.67 112.27)">
   <g transform="matrix(-.18709 -.18709 -.18709 .18709 124.31 85.151)" enable-background="new" stroke-linejoin="round">
    <g stroke-linejoin="round">
     <rect x="2.4766" y="-1.1985" width="4.1161" height="29.103" fill="url(#linearGradient7397-3)" stroke="#000" stroke-linejoin="round" stroke-width=".75"/>
    </g>
   </g>
  </g>
 </g>
</svg>
