<svg height="38.962" stroke-linejoin="round" viewBox="0 0 78.68 38.96" width="78.681" xmlns="http://www.w3.org/2000/svg" xmlns:xlink="http://www.w3.org/1999/xlink">
	<marker id="a" orient="auto" overflow="visible" stroke-linejoin="round">
		<path d="m0 0 5-5-17.5 5 17.5 5z" fill-rule="evenodd" stroke="#000" stroke-linejoin="round" stroke-width="1pt" transform="matrix(-.2 0 0 -.2 -1.2 0)"/>
	</marker>
	<marker id="b" orient="auto" overflow="visible" stroke-linejoin="round">
		<path d="m0 0 5-5-17.5 5 17.5 5z" fill-rule="evenodd" stroke="#000" stroke-linejoin="round" stroke-width="1pt" transform="matrix(.2 0 0 .2 1.2 0)"/>
	</marker>
	<marker id="c" orient="auto" overflow="visible" stroke-linejoin="round">
		<path d="m0 0 5-5-17.5 5 17.5 5z" fill-rule="evenodd" stroke="#000" stroke-linejoin="round" stroke-width="1pt" transform="matrix(-.2 0 0 -.2 -1.2 0)"/>
	</marker>
	<linearGradient id="d" gradientUnits="userSpaceOnUse" stroke-linejoin="round" x1="-3.7022" x2="-3.7022" y1="28.281" y2="-.8166">
		<stop offset=".0056" stop-color="#89a4b6" stroke-linejoin="round"/>
		<stop offset=".5" stop-color="#fff" stroke-linejoin="round"/>
		<stop offset="1" stop-color="#89a4b6" stroke-linejoin="round"/>
	</linearGradient>
	<g stroke-linejoin="round">
		<path d="m56.8 25.37h20" fill="none" marker-start="url(#b)" stroke="#000"/>
		<path d="m55.37 13.37h20" fill="none" marker-end="url(#a)" stroke="#000"/>
		<text x="-292.274" y="58.345"/>
		<g fill="none">
			<path d="m0 19.37h78.68" stroke="#f00" stroke-width="2"/>
			<path d="m3.37 13.37h20" marker-end="url(#c)" stroke="#000"/>
			<path d="m3.37 25.37h20" marker-start="url(#b)" stroke="#000"/>
		</g>
		<g>
			<path d="m3.72-3.77c-.19-.37-.47-.64-.92-.64-1.16 0-2.39 1.47-2.39 2.92 0 .94.55 1.59 1.31 1.59.2 0 .7-.05 1.3-.75.08.42.44.75.91.75.36 0 .58-.23.75-.55.16-.36.3-.97.3-.98 0-.11-.09-.11-.13-.11-.09 0-.11.05-.14.19-.17.64-.34 1.23-.75 1.23-.28 0-.3-.27-.3-.45 0-.22.02-.31.13-.75.1-.4.12-.51.21-.88l.36-1.39c.06-.28.06-.3.06-.34 0-.17-.11-.27-.28-.27-.25 0-.39.22-.42.44zm-.64 2.58c-.06.19-.06.21-.2.38-.44.54-.85.7-1.13.7-.5 0-.64-.55-.64-.94 0-.5.31-1.72.55-2.19.31-.58.75-.95 1.16-.95.64 0 .78.81.78.88 0 .06-.02.13-.03.17zm0 0" transform="matrix(1.3333 0 0 1.3333 59.9537096 5.8761745)"/>
			<path d="m3.52-1.27h-.24c-.02.16-.09.56-.19.63-.04.05-.57.05-.68.05h-1.28c.73-.64.98-.84 1.39-1.17.52-.41 1-.84 1-1.5 0-.84-.73-1.36-1.63-1.36-.86 0-1.45.61-1.45 1.25 0 .34.3.39.38.39.16 0 .36-.13.36-.38 0-.13-.05-.38-.41-.38.21-.48.68-.64 1.01-.64.7 0 1.06.55 1.06 1.11 0 .61-.44 1.08-.66 1.33l-1.66 1.67c-.08.07-.08.08-.08.27h2.88zm0 0" transform="matrix(1.3333 0 0 1.3333 66.9748674 7.8681247)"/>
		</g>
		<g>
			<path d="m3.72-3.77c-.19-.37-.47-.64-.92-.64-1.16 0-2.39 1.47-2.39 2.92 0 .94.55 1.59 1.31 1.59.2 0 .7-.05 1.3-.75.08.42.44.75.91.75.36 0 .58-.23.75-.55.16-.36.3-.97.3-.98 0-.11-.09-.11-.13-.11-.09 0-.11.05-.14.19-.17.64-.34 1.23-.75 1.23-.28 0-.3-.27-.3-.45 0-.22.02-.31.13-.75.1-.4.12-.51.21-.88l.36-1.39c.06-.28.06-.3.06-.34 0-.17-.11-.27-.28-.27-.25 0-.39.22-.42.44zm-.64 2.58c-.06.19-.06.21-.2.38-.44.54-.85.7-1.13.7-.5 0-.64-.55-.64-.94 0-.5.31-1.72.55-2.19.31-.58.75-.95 1.16-.95.64 0 .78.81.78.88 0 .06-.02.13-.03.17zm0 0" transform="matrix(1.3333 0 0 1.3333 8.0987096 5.8751745)"/>
			<path d="m2.33-4.44c0-.19 0-.19-.2-.19-.45.44-1.08.44-1.36.44v.25c.16 0 .63 0 1-.19v3.55c0 .23 0 .33-.69.33h-.27v.25c.13 0 .98-.03 1.23-.03.22 0 1.09.03 1.25.03v-.25h-.26c-.7 0-.7-.09-.7-.33zm0 0" transform="matrix(1.3333 0 0 1.3333 15.1198674 7.8671247)"/>
		</g>
		<g>
			<path d="m3.72-3.77c-.19-.37-.47-.64-.92-.64-1.16 0-2.39 1.47-2.39 2.92 0 .94.55 1.59 1.31 1.59.2 0 .7-.05 1.3-.75.08.42.44.75.91.75.36 0 .58-.23.75-.55.16-.36.3-.97.3-.98 0-.11-.09-.11-.13-.11-.09 0-.11.05-.14.19-.17.64-.34 1.23-.75 1.23-.28 0-.3-.27-.3-.45 0-.22.02-.31.13-.75.1-.4.12-.51.21-.88l.36-1.39c.06-.28.06-.3.06-.34 0-.17-.11-.27-.28-.27-.25 0-.39.22-.42.44zm-.64 2.58c-.06.19-.06.21-.2.38-.44.54-.85.7-1.13.7-.5 0-.64-.55-.64-.94 0-.5.31-1.72.55-2.19.31-.58.75-.95 1.16-.95.64 0 .78.81.78.88 0 .06-.02.13-.03.17zm0 0" transform="matrix(1.3333 0 0 1.3333 6.4137096 36.8761745)"/>
			<path d="m3.69-1.14v-.25h-.78v-3.11c0-.14 0-.2-.14-.2-.09 0-.13 0-.19.11l-2.31 3.2v.25h2.06v.56c0 .25 0 .33-.58.33h-.19v.25c.36-.02.8-.03 1.05-.03.27 0 .7.01 1.06.03v-.25h-.19c-.57 0-.57-.08-.57-.33v-.56zm-1.31-2.8v2.55h-1.85zm0 0" transform="matrix(1.3333 0 0 1.3333 13.4348674 38.8681247)"/>
		</g>
		<g>
			<path d="m3.72-3.77c-.19-.37-.47-.64-.92-.64-1.16 0-2.39 1.47-2.39 2.92 0 .94.55 1.59 1.31 1.59.2 0 .7-.05 1.3-.75.08.42.44.75.91.75.36 0 .58-.23.75-.55.16-.36.3-.97.3-.98 0-.11-.09-.11-.13-.11-.09 0-.11.05-.14.19-.17.64-.34 1.23-.75 1.23-.28 0-.3-.27-.3-.45 0-.22.02-.31.13-.75.1-.4.12-.51.21-.88l.36-1.39c.06-.28.06-.3.06-.34 0-.17-.11-.27-.28-.27-.25 0-.39.22-.42.44zm-.64 2.58c-.06.19-.06.21-.2.38-.44.54-.85.7-1.13.7-.5 0-.64-.55-.64-.94 0-.5.31-1.72.55-2.19.31-.58.75-.95 1.16-.95.64 0 .78.81.78.88 0 .06-.02.13-.03.17zm0 0" transform="matrix(1.3333 0 0 1.3333 59.9207096 36.7831745)"/>
			<path d="m1.91-2.33c.55 0 .94.38.94 1.13 0 .86-.52 1.13-.91 1.13-.28 0-.91-.08-1.19-.5.33 0 .41-.23.41-.39 0-.22-.17-.38-.39-.38-.19 0-.39.13-.39.41 0 .66.72 1.08 1.56 1.08.97 0 1.64-.66 1.64-1.34 0-.55-.44-1.09-1.2-1.25.72-.27.98-.78.98-1.22 0-.55-.63-.95-1.41-.95-.77 0-1.36.38-1.36.94 0 .23.16.36.36.36.22 0 .36-.16.36-.34 0-.2-.14-.36-.36-.38.25-.3.72-.38.98-.38.31 0 .75.16.75.75 0 .3-.09.63-.28.83-.22.27-.42.28-.77.31-.17.02-.19.02-.22.02-.02 0-.08.02-.08.09 0 .09.06.09.19.09zm0 0" transform="matrix(1.3333 0 0 1.3333 66.9418674 38.7751247)"/>
		</g>
		<path d="m2.477-1.199h4.116v29.103h-4.116z" fill="url(#d)" stroke="#000" stroke-width=".75" transform="matrix(-1.0000495 0 0 1.0000495 43.8745225 6.0155725)"/>
	</g>
</svg>
