<svg height="143.681" stroke-linejoin="round" viewBox="0 0 228.18 143.68" width="228.183" xmlns="http://www.w3.org/2000/svg" xmlns:xlink="http://www.w3.org/1999/xlink">
	<marker id="a" orient="auto" overflow="visible" refX="0" refY="0" stroke-linejoin="round">
		<path d="m0 0 5-5-17.5 5 17.5 5z" fill-rule="evenodd" stroke="#000" stroke-linejoin="round" stroke-width="1pt" transform="matrix(-.8 0 0 -.8 -10 0)"/>
	</marker>
	<marker id="b" orient="auto" overflow="visible" refX="0" refY="0" stroke-linejoin="round">
		<path d="m0 0 5-5-17.5 5 17.5 5z" fill-rule="evenodd" stroke="#000" stroke-linejoin="round" stroke-width="1pt" transform="matrix(.8 0 0 .8 10 0)"/>
	</marker>
	<clipPath id="c" stroke-linejoin="round">
		<path d="m129.6 67.046h803.52v430.214h-803.52z"/>
	</clipPath>
	<path d="m284.58 477.48c25.46-4.77 39.18-30.27 49.72-51.49 27.61-62.71 36.64-131.51 45.14-198.93 5.86-45.73 7.82-91.95 14.7-137.52 4.07-6.72 4.42 11.34 5.33 15.34 10.68 98.72 15.16 199.54 46.71 294.49 10.39 27.34 22 57.83 48 73.96 17.71 10.89 39.26-.35 50.27-15.51 27.51-35.95 38.07-81.31 47.98-124.62 16.76-79.07 21.01-159.98 30.45-240.05 1.3-12.36 5.66-.32 5.38 5.81 11.09 99.68 15.2 201.48 46.44 297.56 10.41 28.14 21.99 59.49 48.34 76.46 4.96 2.87 10.61 4.61 16.36 4.73" style="fill:none;stroke:#1f77b4;stroke-width:7.55;stroke-linecap:square;stroke-linejoin:round;clip-path:url(#c)" transform="matrix(.348 0 0 .2017 -57.238 25.001)"/>
	<text stroke-linejoin="round" x="-192.075" y="235.171"/>
	<path d="m33.7 15.49v109.83h186.32" fill="none" marker-end="url(#a)" marker-start="url(#b)" stroke="#000" stroke-linejoin="miter"/>
	<g stroke-linejoin="round">
		<g>
			<path d="m3.66-3.98h.86c.2 0 .3 0 .3-.2 0-.11-.09-.11-.27-.11h-.83l.2-1.15c.05-.2.19-.91.25-1.03.08-.19.25-.34.47-.34.03 0 .3 0 .48.19-.44.03-.55.39-.55.53 0 .23.19.36.38.36.27 0 .55-.24.55-.61 0-.45-.45-.69-.86-.69-.34 0-.97.19-1.27 1.17-.06.2-.09.31-.33 1.56h-.69c-.2 0-.31 0-.31.19 0 .13.09.13.28.13h.66l-.73 3.93c-.19.97-.36 1.88-.88 1.88-.05 0-.28 0-.48-.19.47-.03.56-.39.56-.53 0-.23-.18-.36-.37-.36-.27 0-.55.23-.55.61 0 .44.44.69.84.69.55 0 .95-.59 1.13-.97.33-.63.55-1.83.56-1.91zm0 0" transform="matrix(1.3333 0 0 1.3333 191.0087096 140.9511745)"/>
			<g stroke-linejoin="round" transform="matrix(1.3333 0 0 1.3333 -7.269 -38.731)">
				<path d="m4.69-2.14c0-1.27-.99-2.33-2.19-2.33-1.25 0-2.22 1.09-2.22 2.33 0 1.3 1.03 2.25 2.2 2.25 1.2 0 2.2-.98 2.2-2.25zm-2.19 2c-.44 0-.88-.2-1.14-.67-.25-.44-.25-1.05-.25-1.41 0-.39 0-.92.23-1.36.27-.45.74-.67 1.14-.67.44 0 .86.22 1.13.66.27.42.27 1 .27 1.38 0 .36 0 .91-.22 1.34-.24.45-.68.73-1.16.73zm0 0" transform="translate(157.983 134.765)"/>
				<path d="m1.67-3.31v-1.1l-1.39.11v.31c.7 0 .78.06.78.56v2.68c0 .44-.11.44-.78.44v.31c.39-.02.86-.03 1.14-.03.39 0 .86 0 1.27.03v-.31h-.22c-.73 0-.75-.11-.75-.47v-1.53c0-.98.42-1.88 1.17-1.88.06 0 .09 0 .11.02-.03 0-.23.13-.23.39 0 .27.22.42.44.42.17 0 .42-.13.42-.44s-.31-.61-.73-.61c-.73 0-1.09.67-1.22 1.09zm0 0" transform="translate(162.964 134.765)"/>
			</g>
			<path d="m3.73-6.03c.08-.36.11-.47 1.05-.47.3 0 .38 0 .38-.19 0-.13-.11-.13-.16-.13-.33 0-1.14.03-1.47.03-.3 0-1.03-.03-1.33-.03-.06 0-.19 0-.19.2 0 .11.09.11.28.11.02 0 .2 0 .38.02.17.03.27.03.27.17 0 .03 0 .06-.03.19l-1.35 5.35c-.09.39-.11.47-.91.47-.17 0-.27 0-.27.2.01.11.1.11.28.11h4.63c.23 0 .23 0 .29-.17l.8-2.16c.03-.11.03-.13.03-.14 0-.03-.03-.11-.11-.11-.09 0-.11.06-.17.22-.34.91-.78 2.05-2.5 2.05h-.94c-.14 0-.17 0-.22 0-.11-.02-.14-.03-.14-.11 0-.03 0-.05.05-.22zm0 0" transform="matrix(1.3333 0 0 1.3333 219.6413271 140.9511745)"/>
		</g>
		<g transform="matrix(1.3333 0 0 1.3333 -199.87 -166.393)">
			<path d="m3.02-3.16h1.7c1.41 0 2.8-1.03 2.8-2.14 0-.78-.66-1.52-1.97-1.52h-3.22c-.19 0-.3 0-.3.19 0 .13.08.13.28.13.13 0 .31.02.42.02.17.03.22.05.22.17 0 .03 0 .06-.03.19l-1.34 5.34c-.09.39-.11.47-.91.47-.16 0-.27 0-.27.19.01.12.12.12.15.12.28 0 .98-.03 1.26-.03.22 0 .44.02.64.02.22 0 .44.02.64.02.08 0 .2 0 .2-.2 0-.11-.09-.11-.28-.11-.36 0-.64 0-.64-.17 0-.06.02-.11.03-.17zm.71-2.97c.1-.34.11-.37.55-.37h.95c.83 0 1.36.27 1.36.95 0 .39-.2 1.25-.59 1.61-.5.45-1.09.53-1.53.53h-1.41zm0 0" transform="translate(149.908 131.61)"/>
			<g stroke-linejoin="round">
				<path d="m2.7-2.78c-.13.06-.19.17-.19.31 0 .19.13.33.33.33.19 0 .33-.13.33-.34 0-.63-.97-.63-1.16-.63-1.05 0-1.69.8-1.69 1.61 0 .88.73 1.56 1.66 1.56 1.03 0 1.28-.81 1.28-.91 0-.08-.09-.08-.13-.08-.09 0-.09.02-.13.13-.14.42-.52.64-.94.64-.48 0-1.11-.36-1.11-1.36 0-.88.44-1.38 1.08-1.38.09 0 .42 0 .67.11zm0 0" transform="translate(156.304 133.104)"/>
				<path d="m1.47-4.3c0-.2-.17-.41-.41-.41-.2 0-.39.17-.39.41 0 .25.2.41.39.41.23 0 .41-.17.41-.41zm-1.06 1.3v.25c.44 0 .5.05.5.39v1.81c0 .3-.07.3-.52.3v.25c.02 0 .5-.03.78-.03.25 0 .5.02.73.03v-.25c-.4 0-.46 0-.46-.3v-2.53zm0 0" transform="translate(159.846 133.104)"/>
				<path d="m1.39-1.59c0-.58.27-1.28.94-1.28-.06.05-.13.14-.13.25 0 .23.19.31.31.31.17 0 .33-.11.33-.31 0-.23-.23-.45-.56-.45-.34 0-.73.22-.94.75v-.75l-1 .07v.25c.47 0 .52.05.52.39v1.81c0 .3-.06.3-.52.3v.25c.03 0 .5-.03.8-.03s.59.02.91.03v-.25h-.14c-.52 0-.52-.08-.52-.31zm0 0" transform="translate(162.101 133.104)"/>
				<path d="m2.7-2.78c-.13.06-.19.17-.19.31 0 .19.13.33.33.33.19 0 .33-.13.33-.34 0-.63-.97-.63-1.16-.63-1.05 0-1.69.8-1.69 1.61 0 .88.73 1.56 1.66 1.56 1.03 0 1.28-.81 1.28-.91 0-.08-.09-.08-.13-.08-.09 0-.09.02-.13.13-.14.42-.52.64-.94.64-.48 0-1.11-.36-1.11-1.36 0-.88.44-1.38 1.08-1.38.09 0 .42 0 .67.11zm0 0" transform="translate(165.214 133.104)"/>
			</g>
			<path d="m0 0h19.35" fill="none" stroke="#000" stroke-linejoin="miter" stroke-miterlimit="10" stroke-width=".4" transform="matrix(1 0 0 -1 149.908 135.859)"/>
			<path d="m3.02-3.16h1.7c1.41 0 2.8-1.03 2.8-2.14 0-.78-.66-1.52-1.97-1.52h-3.22c-.19 0-.3 0-.3.19 0 .13.08.13.28.13.13 0 .31.02.42.02.17.03.22.05.22.17 0 .03 0 .06-.03.19l-1.34 5.34c-.09.39-.11.47-.91.47-.16 0-.27 0-.27.19.01.12.12.12.15.12.28 0 .98-.03 1.26-.03.22 0 .44.02.64.02.22 0 .44.02.64.02.08 0 .2 0 .2-.2 0-.11-.09-.11-.28-.11-.36 0-.64 0-.64-.17 0-.06.02-.11.03-.17zm.71-2.97c.1-.34.11-.37.55-.37h.95c.83 0 1.36.27 1.36.95 0 .39-.2 1.25-.59 1.61-.5.45-1.09.53-1.53.53h-1.41zm0 0" transform="translate(154.149 145.183)"/>
			<path d="m3.59-2.22c0-.76-.09-1.33-.4-1.81-.22-.31-.66-.6-1.21-.6-1.63 0-1.63 1.91-1.63 2.41s0 2.36 1.63 2.36c1.61 0 1.61-1.86 1.61-2.36zm-1.61 2.16c-.33 0-.75-.19-.89-.75-.09-.41-.09-.99-.09-1.5 0-.52 0-1.05.09-1.42.16-.55.6-.71.89-.71.38 0 .73.23.86.64.11.38.13.88.13 1.48 0 .52 0 1.03-.09 1.47-.14.64-.61.78-.89.78zm0 0" transform="translate(160.545 146.678)"/>
		</g>
		<g transform="matrix(1.3333 0 0 1.3333 -188.691 -133.632)">
			<path d="m2.94-6.38c0-.25 0-.27-.23-.27-.63.65-1.51.65-1.82.65v.31c.2 0 .78 0 1.3-.27v5.17c0 .36-.03.47-.92.47h-.31v.32c.34-.03 1.2-.03 1.61-.03.39 0 1.27 0 1.61.03v-.31h-.31c-.91 0-.92-.11-.92-.47zm0 0" transform="translate(148.712 134.765)"/>
			<path d="m4.58-3.19c0-.8-.05-1.59-.39-2.33-.45-.97-1.28-1.13-1.69-1.13-.61 0-1.33.27-1.75 1.19-.31.69-.36 1.47-.36 2.27 0 .75.03 1.64.45 2.41.42.8 1.16 1 1.64 1 .53 0 1.3-.2 1.73-1.16.31-.69.36-1.47.36-2.25zm-2.1 3.19c-.39 0-.98-.25-1.15-1.2-.11-.6-.11-1.52-.11-2.11 0-.64 0-1.3.08-1.83.19-1.19.94-1.28 1.19-1.28.33 0 .98.19 1.17 1.17.11.56.11 1.31.11 1.94 0 .75 0 1.42-.11 2.06-.16.95-.72 1.25-1.18 1.25zm0 0" transform="translate(153.693 134.765)"/>
			<path d="m4.58-3.19c0-.8-.05-1.59-.39-2.33-.45-.97-1.28-1.13-1.69-1.13-.61 0-1.33.27-1.75 1.19-.31.69-.36 1.47-.36 2.27 0 .75.03 1.64.45 2.41.42.8 1.16 1 1.64 1 .53 0 1.3-.2 1.73-1.16.31-.69.36-1.47.36-2.25zm-2.1 3.19c-.39 0-.98-.25-1.15-1.2-.11-.6-.11-1.52-.11-2.11 0-.64 0-1.3.08-1.83.19-1.19.94-1.28 1.19-1.28.33 0 .98.19 1.17 1.17.11.56.11 1.31.11 1.94 0 .75 0 1.42-.11 2.06-.16.95-.72 1.25-1.18 1.25zm0 0" transform="translate(158.675 134.765)"/>
		</g>
		<g transform="matrix(1.3333 0 0 1.3333 -182.05 -102.491)">
			<path d="m2.94-6.38c0-.25 0-.27-.23-.27-.63.65-1.51.65-1.82.65v.31c.2 0 .78 0 1.3-.27v5.17c0 .36-.03.47-.92.47h-.31v.32c.34-.03 1.2-.03 1.61-.03.39 0 1.27 0 1.61.03v-.31h-.31c-.91 0-.92-.11-.92-.47zm0 0" transform="translate(148.712 134.765)"/>
			<path d="m4.58-3.19c0-.8-.05-1.59-.39-2.33-.45-.97-1.28-1.13-1.69-1.13-.61 0-1.33.27-1.75 1.19-.31.69-.36 1.47-.36 2.27 0 .75.03 1.64.45 2.41.42.8 1.16 1 1.64 1 .53 0 1.3-.2 1.73-1.16.31-.69.36-1.47.36-2.25zm-2.1 3.19c-.39 0-.98-.25-1.15-1.2-.11-.6-.11-1.52-.11-2.11 0-.64 0-1.3.08-1.83.19-1.19.94-1.28 1.19-1.28.33 0 .98.19 1.17 1.17.11.56.11 1.31.11 1.94 0 .75 0 1.42-.11 2.06-.16.95-.72 1.25-1.18 1.25zm0 0" transform="translate(153.693 134.765)"/>
		</g>
	</g>
	<path d="m2.94-6.38c0-.25 0-.27-.23-.27-.63.65-1.51.65-1.82.65v.31c.2 0 .78 0 1.3-.27v5.17c0 .36-.03.47-.92.47h-.31v.32c.34-.03 1.2-.03 1.61-.03.39 0 1.27 0 1.61.03v-.31h-.31c-.91 0-.92-.11-.92-.47zm0 0" transform="matrix(1.3333 0 0 1.3333 23.4117096 108.4431745)"/>
</svg>
